<svg width="24.000000" height="24.000000" viewBox="0 0 24 24" fill="none" xmlns="http://www.w3.org/2000/svg" xmlns:xlink="http://www.w3.org/1999/xlink">
	<desc>
			Created with Pixso.
	</desc>
	<defs>
		<clipPath id="clip3_1858">
			<rect id="briefcase" width="24.000000" height="24.000000" fill="white" fill-opacity="0"/>
		</clipPath>
	</defs>
	<rect id="briefcase" width="24.000000" height="24.000000" fill="#FFFFFF" fill-opacity="0"/>
	<g clip-path="url(#clip3_1858)">
		<path id="Vector" d="M5 7L19 7C20.1046 7 21 7.89543 21 9L21 18C21 19.1046 20.1046 20 19 20L5 20C3.89545 20 3 19.1046 3 18L3 9C3 7.89543 3.89545 7 5 7Z" fill="#64748B" fill-opacity="1.000000" fill-rule="evenodd"/>
		<path id="Vector" d="M19.738 5.57762Q19.3773 5.5 19 5.5L5 5.5Q4.62268 5.5 4.26202 5.57762Q3.94305 5.64629 3.63721 5.77567Q3.33411 5.90387 3.06464 6.08276Q2.77551 6.27475 2.52515 6.52513Q2.27478 6.7755 2.08276 7.06464Q1.90387 7.33408 1.77563 7.63718Q1.6463 7.94308 1.57764 8.26205Q1.5 8.62267 1.5 9L1.5 18Q1.5 18.3773 1.57764 18.7379Q1.6463 19.0569 1.77563 19.3628Q1.90387 19.6659 2.08276 19.9354Q2.27478 20.2245 2.52515 20.4749Q2.77551 20.7253 3.06464 20.9172Q3.33411 21.0961 3.63721 21.2243Q3.94305 21.3537 4.26208 21.4224Q4.62268 21.5 5 21.5L19 21.5Q19.3774 21.5 19.738 21.4224Q20.0569 21.3537 20.3628 21.2243Q20.6659 21.0961 20.9353 20.9173Q21.2245 20.7253 21.4749 20.4749Q21.7253 20.2245 21.9173 19.9353Q22.0961 19.6659 22.2244 19.3628Q22.3537 19.0569 22.4224 18.7379Q22.5 18.3773 22.5 18L22.5 9Q22.5 8.62268 22.4224 8.26207Q22.3537 7.94308 22.2244 7.63718Q22.0961 7.33412 21.9173 7.06473Q21.7253 6.77554 21.4749 6.52513Q21.2245 6.27475 20.9354 6.08276Q20.6659 5.90387 20.3628 5.77567Q20.0569 5.64629 19.738 5.57762ZM19 7L5 7C3.89545 7 3 7.89543 3 9L3 18C3 19.1046 3.89545 20 5 20L19 20C20.1046 20 21 19.1046 21 18L21 9C21 7.89543 20.1046 7 19 7Z" fill="#FFFFFF" fill-opacity="1.000000" fill-rule="evenodd"/>
		<path id="Vector" d="M8 7L8 5C8 4.46957 8.21069 3.96086 8.58582 3.58578C8.96088 3.21071 9.46954 3 10 3L14 3C14.5305 3 15.0391 3.21071 15.4142 3.58578C15.7893 3.96086 16 4.46957 16 5L16 7" stroke="#64748B" stroke-opacity="1.000000" stroke-width="1.500000" stroke-linejoin="round" stroke-linecap="round"/>
		<path id="Vector" d="M12 12L12 12.01" stroke="#FFFFFF" stroke-opacity="1.000000" stroke-width="2.000000" stroke-linejoin="round" stroke-linecap="round"/>
		<path id="Vector" d="M3 13C5.79156 14.4067 8.87402 15.1394 12 15.1394C15.126 15.1394 18.2084 14.4067 21 13L3 13ZM2.68933 13.6609L2.66248 13.6698C2.28741 13.4808 2.14124 13.0376 2.3302 12.6625C2.51923 12.2874 2.9624 12.1412 3.33752 12.3302L3.34637 12.3571L2.68933 13.6609ZM20.6536 12.3571L20.6625 12.3302C21.0376 12.1412 21.4808 12.2874 21.6698 12.6625C21.8588 13.0376 21.7126 13.4808 21.3375 13.6698L21.3107 13.6609L20.6536 12.3571Z" fill="#64748B" fill-opacity="1.000000" fill-rule="nonzero"/>
		<path id="Vector" d="M3 13C5.79156 14.4067 8.87402 15.1394 12 15.1394C15.126 15.1394 18.2084 14.4067 21 13" stroke="#F8FAFC" stroke-opacity="1.000000" stroke-width="1.500000" stroke-linejoin="round" stroke-linecap="round"/>
	</g>
</svg>
