<svg width="40.000000" height="40.000000" viewBox="0 0 40 40" fill="none" xmlns="http://www.w3.org/2000/svg" xmlns:xlink="http://www.w3.org/1999/xlink">
	<desc>
			Created with Pixso.
	</desc>
	<defs>
		<clipPath id="clip11_1974">
			<rect id="bell" width="24.000000" height="24.000000" transform="translate(8.000000 8.000000)" fill="white" fill-opacity="0"/>
		</clipPath>
		<clipPath id="clip11_1976">
			<rect id="icon" rx="20.000000" width="40.000000" height="40.000000" fill="white" fill-opacity="0"/>
		</clipPath>
	</defs>
	<g clip-path="url(#clip11_1976)">
		<rect id="bell" width="24.000000" height="24.000000" transform="translate(8.000000 8.000000)" fill="#FFFFFF" fill-opacity="0"/>
		<g clip-path="url(#clip11_1974)">
			<path id="Vector" d="M18.5858 11.5858C18.9608 11.2107 19.4696 11 20 11C20.5304 11 21.0392 11.2107 21.4142 11.5858C21.7893 11.9608 22 12.4696 22 13C23.1484 13.543 24.1274 14.3883 24.8321 15.4453C25.5367 16.5023 25.9404 17.7311 26 19L26 22C26.0753 22.6217 26.2954 23.2171 26.6428 23.7381C26.9902 24.2592 27.455 24.6914 28 25L12 25C12.545 24.6914 13.0098 24.2592 13.3572 23.7381C13.7046 23.2171 13.9247 22.6217 14 22L14 19C14.0596 17.7311 14.4633 16.5023 15.1679 15.4453C15.8726 14.3883 16.8516 13.543 18 13C18 12.4696 18.2107 11.9608 18.5858 11.5858Z" stroke="#64748B" stroke-opacity="1.000000" stroke-width="1.500000" stroke-linejoin="round"/>
			<path id="Vector" d="M17 25L17 26C17 26.7957 17.3161 27.5587 17.8787 28.1213C18.4413 28.6839 19.2043 29 20 29C20.7957 29 21.5587 28.6839 22.1213 28.1213C22.6839 27.5587 23 26.7957 23 26L23 25" stroke="#64748B" stroke-opacity="1.000000" stroke-width="1.500000" stroke-linejoin="round" stroke-linecap="round"/>
		</g>
		<circle id="Ellipse 13" cx="26.000000" cy="14.000000" r="4.000000" fill="#ED4F9D" fill-opacity="1.000000"/>
		<circle id="Ellipse 13" cx="26.000000" cy="14.000000" r="3.500000" stroke="#FFFFFF" stroke-opacity="1.000000" stroke-width="1.000000"/>
	</g>
</svg>
