<svg width="22.000000" height="22.000000" viewBox="0 0 22 22" fill="none" xmlns="http://www.w3.org/2000/svg" xmlns:xlink="http://www.w3.org/1999/xlink">
	<desc>
			Created with Pixso.
	</desc>
	<defs>
		<clipPath id="clip11_1600">
			<rect id="layout-grid" width="22.000000" height="22.000000" fill="white" fill-opacity="0"/>
		</clipPath>
	</defs>
	<g clip-path="url(#clip11_1600)">
		<path id="Vector" d="M8.25 3.66666C8.75629 3.66666 9.16669 4.07706 9.16669 4.58331L9.16669 8.25C9.16669 8.75626 8.75629 9.16666 8.25 9.16666L4.58337 9.16666C4.07709 9.16666 3.66669 8.75626 3.66669 8.25L3.66669 4.58331C3.66669 4.07706 4.07709 3.66666 4.58337 3.66666L8.25 3.66666ZM17.4167 3.66666C17.923 3.66666 18.3334 4.07706 18.3334 4.58331L18.3334 8.25C18.3334 8.75626 17.923 9.16666 17.4167 9.16666L13.75 9.16666C13.2438 9.16666 12.8334 8.75626 12.8334 8.25L12.8334 4.58331C12.8334 4.07706 13.2438 3.66666 13.75 3.66666L17.4167 3.66666ZM8.25 12.8333C8.75629 12.8333 9.16669 13.2437 9.16669 13.75L9.16669 17.4167C9.16669 17.9229 8.75629 18.3333 8.25 18.3333L4.58337 18.3333C4.07709 18.3333 3.66669 17.9229 3.66669 17.4167L3.66669 13.75C3.66669 13.2437 4.07709 12.8333 4.58337 12.8333L8.25 12.8333ZM17.4167 12.8333C17.923 12.8333 18.3334 13.2437 18.3334 13.75L18.3334 17.4167C18.3334 17.9229 17.923 18.3333 17.4167 18.3333L13.75 18.3333C13.2438 18.3333 12.8334 17.9229 12.8334 17.4167L12.8334 13.75C12.8334 13.2437 13.2438 12.8333 13.75 12.8333L17.4167 12.8333Z" stroke="#64748B" stroke-opacity="1.000000" stroke-width="1.500000" stroke-linejoin="round"/>
	</g>
</svg>
